<mxfile host="Electron" modified="2024-04-02T08:53:48.167Z" agent="Mozilla/5.0 (Windows NT 10.0; Win64; x64) AppleWebKit/537.36 (KHTML, like Gecko) draw.io/22.0.3 Chrome/114.0.5735.289 Electron/25.8.4 Safari/537.36" etag="x76h_LyBcka-6JxXR1x9" version="22.0.3" type="device">
  <diagram name="Seite-1" id="PJcJ9Y0O-6XGUU2l3BQm">
    <mxGraphModel dx="819" dy="482" grid="1" gridSize="10" guides="1" tooltips="1" connect="1" arrows="1" fold="1" page="1" pageScale="1" pageWidth="1169" pageHeight="827" math="0" shadow="0">
      <root>
        <mxCell id="0" />
        <mxCell id="1" parent="0" />
        <mxCell id="vSeHLzXYfoxodYGFTnRO-4" style="edgeStyle=orthogonalEdgeStyle;rounded=0;orthogonalLoop=1;jettySize=auto;html=1;fillColor=#d5e8d4;strokeColor=#82b366;strokeWidth=2;" edge="1" parent="1" source="vSeHLzXYfoxodYGFTnRO-2" target="vSeHLzXYfoxodYGFTnRO-3">
          <mxGeometry relative="1" as="geometry" />
        </mxCell>
        <mxCell id="vSeHLzXYfoxodYGFTnRO-2" value="" style="ellipse;fillColor=strokeColor;html=1;" vertex="1" parent="1">
          <mxGeometry x="600" y="80" width="30" height="30" as="geometry" />
        </mxCell>
        <mxCell id="vSeHLzXYfoxodYGFTnRO-6" value="[ist Premiumkunde]" style="edgeStyle=orthogonalEdgeStyle;rounded=0;orthogonalLoop=1;jettySize=auto;html=1;fillColor=#6a00ff;strokeColor=#3700CC;strokeWidth=2;" edge="1" parent="1" source="vSeHLzXYfoxodYGFTnRO-3" target="vSeHLzXYfoxodYGFTnRO-5">
          <mxGeometry relative="1" as="geometry" />
        </mxCell>
        <mxCell id="vSeHLzXYfoxodYGFTnRO-8" value="[ist Standardkunde]" style="edgeStyle=orthogonalEdgeStyle;rounded=0;orthogonalLoop=1;jettySize=auto;html=1;fillColor=#f8cecc;strokeColor=#b85450;strokeWidth=2;" edge="1" parent="1" source="vSeHLzXYfoxodYGFTnRO-3" target="vSeHLzXYfoxodYGFTnRO-7">
          <mxGeometry relative="1" as="geometry" />
        </mxCell>
        <mxCell id="vSeHLzXYfoxodYGFTnRO-10" value="[kein Kunde]" style="edgeStyle=orthogonalEdgeStyle;rounded=0;orthogonalLoop=1;jettySize=auto;html=1;fillColor=#d5e8d4;strokeColor=#82b366;strokeWidth=2;" edge="1" parent="1" source="vSeHLzXYfoxodYGFTnRO-3" target="vSeHLzXYfoxodYGFTnRO-9">
          <mxGeometry relative="1" as="geometry" />
        </mxCell>
        <mxCell id="vSeHLzXYfoxodYGFTnRO-3" value="" style="rhombus;" vertex="1" parent="1">
          <mxGeometry x="600" y="150" width="30" height="30" as="geometry" />
        </mxCell>
        <mxCell id="vSeHLzXYfoxodYGFTnRO-19" style="edgeStyle=orthogonalEdgeStyle;rounded=0;orthogonalLoop=1;jettySize=auto;html=1;entryX=0;entryY=0.5;entryDx=0;entryDy=0;fillColor=#6a00ff;strokeColor=#3700CC;strokeWidth=2;" edge="1" parent="1" source="vSeHLzXYfoxodYGFTnRO-5" target="vSeHLzXYfoxodYGFTnRO-15">
          <mxGeometry relative="1" as="geometry">
            <Array as="points">
              <mxPoint x="400" y="455" />
            </Array>
          </mxGeometry>
        </mxCell>
        <mxCell id="vSeHLzXYfoxodYGFTnRO-5" value="Rabatt = 10% ✅" style="html=1;align=center;verticalAlign=top;rounded=1;absoluteArcSize=1;arcSize=10;dashed=0;whiteSpace=wrap;" vertex="1" parent="1">
          <mxGeometry x="330" y="200" width="140" height="40" as="geometry" />
        </mxCell>
        <mxCell id="vSeHLzXYfoxodYGFTnRO-18" style="edgeStyle=orthogonalEdgeStyle;rounded=0;orthogonalLoop=1;jettySize=auto;html=1;entryX=1;entryY=0.5;entryDx=0;entryDy=0;fillColor=#f8cecc;strokeColor=#b85450;strokeWidth=2;" edge="1" parent="1" source="vSeHLzXYfoxodYGFTnRO-7" target="vSeHLzXYfoxodYGFTnRO-15">
          <mxGeometry relative="1" as="geometry">
            <Array as="points">
              <mxPoint x="830" y="455" />
            </Array>
          </mxGeometry>
        </mxCell>
        <mxCell id="vSeHLzXYfoxodYGFTnRO-7" value="Rabatt = 5% ✅" style="html=1;align=center;verticalAlign=top;rounded=1;absoluteArcSize=1;arcSize=10;dashed=0;whiteSpace=wrap;" vertex="1" parent="1">
          <mxGeometry x="760" y="210" width="140" height="40" as="geometry" />
        </mxCell>
        <mxCell id="vSeHLzXYfoxodYGFTnRO-12" value="[Bestellwert &amp;gt; 100€]" style="edgeStyle=orthogonalEdgeStyle;rounded=0;orthogonalLoop=1;jettySize=auto;html=1;fillColor=#d5e8d4;strokeColor=#82b366;strokeWidth=2;" edge="1" parent="1" source="vSeHLzXYfoxodYGFTnRO-9" target="vSeHLzXYfoxodYGFTnRO-11">
          <mxGeometry relative="1" as="geometry" />
        </mxCell>
        <mxCell id="vSeHLzXYfoxodYGFTnRO-14" value="[else]" style="edgeStyle=orthogonalEdgeStyle;rounded=0;orthogonalLoop=1;jettySize=auto;html=1;fillColor=#1ba1e2;strokeColor=#006EAF;strokeWidth=2;" edge="1" parent="1" source="vSeHLzXYfoxodYGFTnRO-9" target="vSeHLzXYfoxodYGFTnRO-13">
          <mxGeometry relative="1" as="geometry" />
        </mxCell>
        <mxCell id="vSeHLzXYfoxodYGFTnRO-9" value="" style="rhombus;" vertex="1" parent="1">
          <mxGeometry x="600" y="260" width="30" height="30" as="geometry" />
        </mxCell>
        <mxCell id="vSeHLzXYfoxodYGFTnRO-16" style="edgeStyle=orthogonalEdgeStyle;rounded=0;orthogonalLoop=1;jettySize=auto;html=1;exitX=0.5;exitY=1;exitDx=0;exitDy=0;fillColor=#d5e8d4;strokeColor=#82b366;strokeWidth=2;" edge="1" parent="1" source="vSeHLzXYfoxodYGFTnRO-11" target="vSeHLzXYfoxodYGFTnRO-15">
          <mxGeometry relative="1" as="geometry" />
        </mxCell>
        <mxCell id="vSeHLzXYfoxodYGFTnRO-11" value="Rabatt = 2% ✅" style="html=1;align=center;verticalAlign=top;rounded=1;absoluteArcSize=1;arcSize=10;dashed=0;whiteSpace=wrap;" vertex="1" parent="1">
          <mxGeometry x="420" y="330" width="140" height="40" as="geometry" />
        </mxCell>
        <mxCell id="vSeHLzXYfoxodYGFTnRO-17" style="edgeStyle=orthogonalEdgeStyle;rounded=0;orthogonalLoop=1;jettySize=auto;html=1;exitX=0.5;exitY=1;exitDx=0;exitDy=0;fillColor=#1ba1e2;strokeColor=#006EAF;strokeWidth=2;" edge="1" parent="1" source="vSeHLzXYfoxodYGFTnRO-13" target="vSeHLzXYfoxodYGFTnRO-15">
          <mxGeometry relative="1" as="geometry" />
        </mxCell>
        <mxCell id="vSeHLzXYfoxodYGFTnRO-13" value="kein Rabatt ✅" style="html=1;align=center;verticalAlign=top;rounded=1;absoluteArcSize=1;arcSize=10;dashed=0;whiteSpace=wrap;" vertex="1" parent="1">
          <mxGeometry x="640" y="330" width="140" height="40" as="geometry" />
        </mxCell>
        <mxCell id="vSeHLzXYfoxodYGFTnRO-15" value="" style="ellipse;html=1;shape=endState;fillColor=strokeColor;" vertex="1" parent="1">
          <mxGeometry x="600" y="440" width="30" height="30" as="geometry" />
        </mxCell>
        <mxCell id="vSeHLzXYfoxodYGFTnRO-20" value="Beim Coverage versuchen wir möglichst alle Programmflüsse (Pfade durch das Programm) einer Komponente / Algorithmus zu testen." style="shape=note2;boundedLbl=1;whiteSpace=wrap;html=1;size=14;verticalAlign=top;align=left;fillColor=#fff2cc;strokeColor=#d6b656;shadow=1;" vertex="1" parent="1">
          <mxGeometry x="860" y="70" width="190" height="110" as="geometry" />
        </mxCell>
      </root>
    </mxGraphModel>
  </diagram>
</mxfile>
